<svg xmlns="http://www.w3.org/2000/svg" viewBox="0 0 5910 493" role="img" aria-labelledby="graph-title graph-desc"><defs><marker id="arrow-prereq" viewBox="0 0 10 10" refX="9" refY="5" markerWidth="7" markerHeight="7" orient="auto-start-reverse"><path d="M 0 0 L 10 5 L 0 10 z" fill="#b45309" /></marker><marker id="arrow-tree" viewBox="0 0 10 10" refX="9" refY="5" markerWidth="7" markerHeight="7" orient="auto-start-reverse"><path d="M 0 0 L 10 5 L 0 10 z" fill="#374151" /></marker></defs><title id="graph-title">physics-v4 knowledge graph</title><desc id="graph-desc">21 communities, 20 concepts, 26 skills, 56 prerequisite edges</desc><path d="M 3075.0 208.0 C 3075.0 246.5 5540.0 246.5 5540.0 285.0" fill="none" stroke="#374151" stroke-width="3.60" stroke-dasharray="" stroke-linecap="round" opacity="0.65" marker-end="url(#arrow-tree)"><title>parent: Physics -> Waves</title></path><path d="M 3075.0 208.0 C 3075.0 246.5 3220.0 246.5 3220.0 285.0" fill="none" stroke="#374151" stroke-width="3.60" stroke-dasharray="" stroke-linecap="round" opacity="0.65" marker-end="url(#arrow-tree)"><title>parent: Physics -> Oscillations</title></path><path d="M 3075.0 208.0 C 3075.0 246.5 3800.0 246.5 3800.0 285.0" fill="none" stroke="#374151" stroke-width="3.60" stroke-dasharray="" stroke-linecap="round" opacity="0.65" marker-end="url(#arrow-tree)"><title>parent: Physics -> Ray Optics</title></path><path d="M 3075.0 208.0 C 3075.0 246.5 2640.0 246.5 2640.0 285.0" fill="none" stroke="#374151" stroke-width="3.60" stroke-dasharray="" stroke-linecap="round" opacity="0.65" marker-end="url(#arrow-tree)"><title>parent: Physics -> Magnetism and Matter</title></path><path d="M 3075.0 208.0 C 3075.0 246.5 2060.0 246.5 2060.0 285.0" fill="none" stroke="#374151" stroke-width="3.60" stroke-dasharray="" stroke-linecap="round" opacity="0.65" marker-end="url(#arrow-tree)"><title>parent: Physics -> Kinetic Theory</title></path><path d="M 3075.0 208.0 C 3075.0 246.5 610.0 246.5 610.0 285.0" fill="none" stroke="#374151" stroke-width="3.60" stroke-dasharray="" stroke-linecap="round" opacity="0.65" marker-end="url(#arrow-tree)"><title>parent: Physics -> Current Electricity</title></path><path d="M 3075.0 208.0 C 3075.0 246.5 4960.0 246.5 4960.0 285.0" fill="none" stroke="#374151" stroke-width="3.60" stroke-dasharray="" stroke-linecap="round" opacity="0.65" marker-end="url(#arrow-tree)"><title>parent: Physics -> Units and Measurements</title></path><path d="M 3075.0 208.0 C 3075.0 246.5 2350.0 246.5 2350.0 285.0" fill="none" stroke="#374151" stroke-width="3.60" stroke-dasharray="" stroke-linecap="round" opacity="0.65" marker-end="url(#arrow-tree)"><title>parent: Physics -> Laws of Motion</title></path><path d="M 3075.0 208.0 C 3075.0 246.5 900.0 246.5 900.0 285.0" fill="none" stroke="#374151" stroke-width="3.60" stroke-dasharray="" stroke-linecap="round" opacity="0.65" marker-end="url(#arrow-tree)"><title>parent: Physics -> Dual Nature of Matter</title></path><path d="M 3075.0 208.0 C 3075.0 246.5 3510.0 246.5 3510.0 285.0" fill="none" stroke="#374151" stroke-width="3.60" stroke-dasharray="" stroke-linecap="round" opacity="0.65" marker-end="url(#arrow-tree)"><title>parent: Physics -> Properties of Matter</title></path><path d="M 3075.0 208.0 C 3075.0 246.5 320.0 246.5 320.0 285.0" fill="none" stroke="#374151" stroke-width="3.60" stroke-dasharray="" stroke-linecap="round" opacity="0.65" marker-end="url(#arrow-tree)"><title>parent: Physics -> Atoms and Nuclei</title></path><path d="M 3075.0 208.0 C 3075.0 246.5 1770.0 246.5 1770.0 285.0" fill="none" stroke="#374151" stroke-width="3.60" stroke-dasharray="" stroke-linecap="round" opacity="0.65" marker-end="url(#arrow-tree)"><title>parent: Physics -> Kinematics</title></path><path d="M 3075.0 208.0 C 3075.0 246.5 4090.0 246.5 4090.0 285.0" fill="none" stroke="#374151" stroke-width="3.60" stroke-dasharray="" stroke-linecap="round" opacity="0.65" marker-end="url(#arrow-tree)"><title>parent: Physics -> Rotational Mechanics</title></path><path d="M 3075.0 208.0 C 3075.0 246.5 5830.0 246.5 5830.0 285.0" fill="none" stroke="#374151" stroke-width="3.60" stroke-dasharray="" stroke-linecap="round" opacity="0.65" marker-end="url(#arrow-tree)"><title>parent: Physics -> Work, Energy and Power</title></path><path d="M 3075.0 208.0 C 3075.0 246.5 2930.0 246.5 2930.0 285.0" fill="none" stroke="#374151" stroke-width="3.60" stroke-dasharray="" stroke-linecap="round" opacity="0.65" marker-end="url(#arrow-tree)"><title>parent: Physics -> Moving Charges and Magnetism</title></path><path d="M 3075.0 208.0 C 3075.0 246.5 1190.0 246.5 1190.0 285.0" fill="none" stroke="#374151" stroke-width="3.60" stroke-dasharray="" stroke-linecap="round" opacity="0.65" marker-end="url(#arrow-tree)"><title>parent: Physics -> Electrostatics</title></path><path d="M 3075.0 208.0 C 3075.0 246.5 4380.0 246.5 4380.0 285.0" fill="none" stroke="#374151" stroke-width="3.60" stroke-dasharray="" stroke-linecap="round" opacity="0.65" marker-end="url(#arrow-tree)"><title>parent: Physics -> Semiconductor Electronics</title></path><path d="M 3075.0 208.0 C 3075.0 246.5 1480.0 246.5 1480.0 285.0" fill="none" stroke="#374151" stroke-width="3.60" stroke-dasharray="" stroke-linecap="round" opacity="0.65" marker-end="url(#arrow-tree)"><title>parent: Physics -> Gravitation</title></path><path d="M 3075.0 208.0 C 3075.0 246.5 5250.0 246.5 5250.0 285.0" fill="none" stroke="#374151" stroke-width="3.60" stroke-dasharray="" stroke-linecap="round" opacity="0.65" marker-end="url(#arrow-tree)"><title>parent: Physics -> Wave Optics</title></path><path d="M 3075.0 208.0 C 3075.0 246.5 4670.0 246.5 4670.0 285.0" fill="none" stroke="#374151" stroke-width="3.60" stroke-dasharray="" stroke-linecap="round" opacity="0.65" marker-end="url(#arrow-tree)"><title>parent: Physics -> Thermal Properties of Matter</title></path><path d="M 1190.0 373.0 C 1190.0 329.0 5540.0 329.0 5540.0 285.0" fill="none" stroke="#b45309" stroke-width="3.40" stroke-dasharray="6 5" stroke-linecap="round" opacity="0.36" marker-end="url(#arrow-prereq)"><title>2 prerequisites: Electrostatics -> Waves</title></path><path d="M 1190.0 373.0 C 1190.0 329.0 610.0 329.0 610.0 285.0" fill="none" stroke="#b45309" stroke-width="3.30" stroke-dasharray="6 5" stroke-linecap="round" opacity="0.36" marker-end="url(#arrow-prereq)"><title>2 prerequisites: Electrostatics -> Current Electricity</title></path><path d="M 3510.0 373.0 C 3510.0 329.0 2350.0 329.0 2350.0 285.0" fill="none" stroke="#b45309" stroke-width="3.40" stroke-dasharray="6 5" stroke-linecap="round" opacity="0.36" marker-end="url(#arrow-prereq)"><title>1 prerequisite: Properties of Matter -> Laws of Motion</title></path><path d="M 5830.0 373.0 C 5830.0 329.0 610.0 329.0 610.0 285.0" fill="none" stroke="#b45309" stroke-width="3.40" stroke-dasharray="6 5" stroke-linecap="round" opacity="0.36" marker-end="url(#arrow-prereq)"><title>1 prerequisite: Work, Energy and Power -> Current Electricity</title></path><path d="M 1190.0 373.0 C 1190.0 329.0 4960.0 329.0 4960.0 285.0" fill="none" stroke="#b45309" stroke-width="3.40" stroke-dasharray="6 5" stroke-linecap="round" opacity="0.36" marker-end="url(#arrow-prereq)"><title>1 prerequisite: Electrostatics -> Units and Measurements</title></path><path d="M 1190.0 373.0 C 1190.0 329.0 5830.0 329.0 5830.0 285.0" fill="none" stroke="#b45309" stroke-width="3.40" stroke-dasharray="6 5" stroke-linecap="round" opacity="0.36" marker-end="url(#arrow-prereq)"><title>1 prerequisite: Electrostatics -> Work, Energy and Power</title></path><path d="M 1190.0 373.0 C 1190.0 329.0 2930.0 329.0 2930.0 285.0" fill="none" stroke="#b45309" stroke-width="3.40" stroke-dasharray="6 5" stroke-linecap="round" opacity="0.36" marker-end="url(#arrow-prereq)"><title>1 prerequisite: Electrostatics -> Moving Charges and Magnetism</title></path><path d="M 1480.0 373.0 C 1480.0 329.0 3220.0 329.0 3220.0 285.0" fill="none" stroke="#b45309" stroke-width="3.40" stroke-dasharray="6 5" stroke-linecap="round" opacity="0.36" marker-end="url(#arrow-prereq)"><title>1 prerequisite: Gravitation -> Oscillations</title></path><path d="M 1480.0 373.0 C 1480.0 329.0 2350.0 329.0 2350.0 285.0" fill="none" stroke="#b45309" stroke-width="3.40" stroke-dasharray="6 5" stroke-linecap="round" opacity="0.36" marker-end="url(#arrow-prereq)"><title>1 prerequisite: Gravitation -> Laws of Motion</title></path><path d="M 1480.0 373.0 C 1480.0 329.0 320.0 329.0 320.0 285.0" fill="none" stroke="#b45309" stroke-width="3.40" stroke-dasharray="6 5" stroke-linecap="round" opacity="0.36" marker-end="url(#arrow-prereq)"><title>1 prerequisite: Gravitation -> Atoms and Nuclei</title></path><path d="M 1480.0 373.0 C 1480.0 329.0 5830.0 329.0 5830.0 285.0" fill="none" stroke="#b45309" stroke-width="3.40" stroke-dasharray="6 5" stroke-linecap="round" opacity="0.36" marker-end="url(#arrow-prereq)"><title>1 prerequisite: Gravitation -> Work, Energy and Power</title></path><path d="M 4670.0 373.0 C 4670.0 329.0 3220.0 329.0 3220.0 285.0" fill="none" stroke="#b45309" stroke-width="3.40" stroke-dasharray="6 5" stroke-linecap="round" opacity="0.36" marker-end="url(#arrow-prereq)"><title>1 prerequisite: Thermal Properties of Matter -> Oscillations</title></path><path d="M 4670.0 373.0 C 4670.0 329.0 610.0 329.0 610.0 285.0" fill="none" stroke="#b45309" stroke-width="3.40" stroke-dasharray="6 5" stroke-linecap="round" opacity="0.36" marker-end="url(#arrow-prereq)"><title>1 prerequisite: Thermal Properties of Matter -> Current Electricity</title></path><path d="M 4670.0 373.0 C 4670.0 329.0 5830.0 329.0 5830.0 285.0" fill="none" stroke="#b45309" stroke-width="3.40" stroke-dasharray="6 5" stroke-linecap="round" opacity="0.36" marker-end="url(#arrow-prereq)"><title>1 prerequisite: Thermal Properties of Matter -> Work, Energy and Power</title></path><path d="M 5540.0 373.0 C 5540.0 329.0 5250.0 329.0 5250.0 285.0" fill="none" stroke="#b45309" stroke-width="3.20" stroke-dasharray="6 5" stroke-linecap="round" opacity="0.36" marker-end="url(#arrow-prereq)"><title>1 prerequisite: Waves -> Wave Optics</title></path><path d="M 3220.0 373.0 C 3220.0 329.0 5540.0 329.0 5540.0 285.0" fill="none" stroke="#b45309" stroke-width="3.20" stroke-dasharray="6 5" stroke-linecap="round" opacity="0.36" marker-end="url(#arrow-prereq)"><title>1 prerequisite: Oscillations -> Waves</title></path><path d="M 3800.0 373.0 C 3800.0 329.0 5250.0 329.0 5250.0 285.0" fill="none" stroke="#b45309" stroke-width="3.20" stroke-dasharray="6 5" stroke-linecap="round" opacity="0.36" marker-end="url(#arrow-prereq)"><title>1 prerequisite: Ray Optics -> Wave Optics</title></path><path d="M 610.0 373.0 C 610.0 329.0 2930.0 329.0 2930.0 285.0" fill="none" stroke="#b45309" stroke-width="3.20" stroke-dasharray="6 5" stroke-linecap="round" opacity="0.36" marker-end="url(#arrow-prereq)"><title>1 prerequisite: Current Electricity -> Moving Charges and Magnetism</title></path><path d="M 4960.0 373.0 C 4960.0 329.0 1770.0 329.0 1770.0 285.0" fill="none" stroke="#b45309" stroke-width="3.20" stroke-dasharray="6 5" stroke-linecap="round" opacity="0.36" marker-end="url(#arrow-prereq)"><title>1 prerequisite: Units and Measurements -> Kinematics</title></path><path d="M 2350.0 373.0 C 2350.0 329.0 3220.0 329.0 3220.0 285.0" fill="none" stroke="#b45309" stroke-width="3.20" stroke-dasharray="6 5" stroke-linecap="round" opacity="0.36" marker-end="url(#arrow-prereq)"><title>1 prerequisite: Laws of Motion -> Oscillations</title></path><path d="M 2350.0 373.0 C 2350.0 329.0 3510.0 329.0 3510.0 285.0" fill="none" stroke="#b45309" stroke-width="3.20" stroke-dasharray="6 5" stroke-linecap="round" opacity="0.36" marker-end="url(#arrow-prereq)"><title>1 prerequisite: Laws of Motion -> Properties of Matter</title></path><path d="M 2350.0 373.0 C 2350.0 329.0 5830.0 329.0 5830.0 285.0" fill="none" stroke="#b45309" stroke-width="3.20" stroke-dasharray="6 5" stroke-linecap="round" opacity="0.36" marker-end="url(#arrow-prereq)"><title>1 prerequisite: Laws of Motion -> Work, Energy and Power</title></path><path d="M 2350.0 373.0 C 2350.0 329.0 1480.0 329.0 1480.0 285.0" fill="none" stroke="#b45309" stroke-width="3.20" stroke-dasharray="6 5" stroke-linecap="round" opacity="0.36" marker-end="url(#arrow-prereq)"><title>1 prerequisite: Laws of Motion -> Gravitation</title></path><path d="M 900.0 373.0 C 900.0 329.0 320.0 329.0 320.0 285.0" fill="none" stroke="#b45309" stroke-width="3.20" stroke-dasharray="6 5" stroke-linecap="round" opacity="0.36" marker-end="url(#arrow-prereq)"><title>1 prerequisite: Dual Nature of Matter -> Atoms and Nuclei</title></path><path d="M 320.0 373.0 C 320.0 329.0 4380.0 329.0 4380.0 285.0" fill="none" stroke="#b45309" stroke-width="3.20" stroke-dasharray="6 5" stroke-linecap="round" opacity="0.36" marker-end="url(#arrow-prereq)"><title>1 prerequisite: Atoms and Nuclei -> Semiconductor Electronics</title></path><path d="M 1770.0 373.0 C 1770.0 329.0 2350.0 329.0 2350.0 285.0" fill="none" stroke="#b45309" stroke-width="3.20" stroke-dasharray="6 5" stroke-linecap="round" opacity="0.36" marker-end="url(#arrow-prereq)"><title>1 prerequisite: Kinematics -> Laws of Motion</title></path><path d="M 5830.0 373.0 C 5830.0 329.0 4090.0 329.0 4090.0 285.0" fill="none" stroke="#b45309" stroke-width="3.20" stroke-dasharray="6 5" stroke-linecap="round" opacity="0.36" marker-end="url(#arrow-prereq)"><title>1 prerequisite: Work, Energy and Power -> Rotational Mechanics</title></path><path d="M 2930.0 373.0 C 2930.0 329.0 2640.0 329.0 2640.0 285.0" fill="none" stroke="#b45309" stroke-width="3.20" stroke-dasharray="6 5" stroke-linecap="round" opacity="0.36" marker-end="url(#arrow-prereq)"><title>1 prerequisite: Moving Charges and Magnetism -> Magnetism and Matter</title></path><g class="node" data-node-id="community-393d4478ba4d" transform="translate(2955.0, 120.0)"><rect x="0" y="0" rx="18" ry="18" width="240.0" height="88.0" fill="#f8fafc" stroke="#0f172a" stroke-width="1.6" /><rect x="1.5" y="1.5" rx="16" ry="16" width="237.0" height="85.0" fill="none" stroke="#cbd5e1" stroke-width="1" /><text x="120.0" y="35.0" text-anchor="middle" font-size="15" font-weight="700" fill="#0f172a"><tspan x="120.0" dy="0">Physics</tspan></text><text x="120.0" y="58.0" text-anchor="middle" font-size="11.5" fill="#475569"><tspan x="120.0" dy="0">20 concepts | 26 skills | 278 misconceptions</tspan></text><title>Physics
Level: subject
Members: 324
Concepts: 20
Skills: 26
Misconceptions: 278
Theme: Physics. Concepts: Atoms and Nuclei, Current Electricity, Dual Nature of Matter, Electrostatics, Gravitation. Prerequisites: Kinet...</title></g><g class="node" data-node-id="community-73897c41e20c" transform="translate(200.0, 285.0)"><rect x="0" y="0" rx="18" ry="18" width="240.0" height="88.0" fill="#f8fafc" stroke="#0f172a" stroke-width="1.6" /><rect x="1.5" y="1.5" rx="16" ry="16" width="237.0" height="85.0" fill="none" stroke="#cbd5e1" stroke-width="1" /><text x="120.0" y="35.0" text-anchor="middle" font-size="15" font-weight="700" fill="#0f172a"><tspan x="120.0" dy="0">Atoms and Nuclei</tspan></text><text x="120.0" y="58.0" text-anchor="middle" font-size="11.5" fill="#475569"><tspan x="120.0" dy="0">1 concepts | 2 skills | 16 misconceptions</tspan></text><title>Atoms and Nuclei
Level: chapter
Members: 19
Concepts: 1
Skills: 2
Misconceptions: 16
Theme: Atoms and Nuclei. Concepts: Atoms and Nuclei, apply energy conservation, solve atoms and nuclei problems. Prerequisites: Atoms and...</title></g><g class="node" data-node-id="community-2ab9ab9f6fc6" transform="translate(490.0, 285.0)"><rect x="0" y="0" rx="18" ry="18" width="240.0" height="88.0" fill="#f8fafc" stroke="#0f172a" stroke-width="1.6" /><rect x="1.5" y="1.5" rx="16" ry="16" width="237.0" height="85.0" fill="none" stroke="#cbd5e1" stroke-width="1" /><text x="120.0" y="35.0" text-anchor="middle" font-size="15" font-weight="700" fill="#0f172a"><tspan x="120.0" dy="0">Current Electricity</tspan></text><text x="120.0" y="58.0" text-anchor="middle" font-size="11.5" fill="#475569"><tspan x="120.0" dy="0">1 concepts | 4 skills | 51 misconceptions</tspan></text><title>Current Electricity
Level: chapter
Members: 56
Concepts: 1
Skills: 4
Misconceptions: 51
Theme: Current Electricity. Concepts: Current Electricity, apply electromagnetic induction, apply thermodynamics relations, reduce circui...</title></g><g class="node" data-node-id="community-454fb0f45de6" transform="translate(780.0, 285.0)"><rect x="0" y="0" rx="18" ry="18" width="240.0" height="88.0" fill="#f8fafc" stroke="#0f172a" stroke-width="1.6" /><rect x="1.5" y="1.5" rx="16" ry="16" width="237.0" height="85.0" fill="none" stroke="#cbd5e1" stroke-width="1" /><text x="120.0" y="35.0" text-anchor="middle" font-size="15" font-weight="700" fill="#0f172a"><tspan x="120.0" dy="0">Dual Nature of Matter</tspan></text><text x="120.0" y="58.0" text-anchor="middle" font-size="11.5" fill="#475569"><tspan x="120.0" dy="0">1 concepts | 1 skills | 1 misconceptions</tspan></text><title>Dual Nature of Matter
Level: chapter
Members: 3
Concepts: 1
Skills: 1
Misconceptions: 1
Theme: Dual Nature of Matter. Concepts: Dual Nature of Matter, solve dual nature of matter problems. Prerequisites: Dual Nature of Matter...</title></g><g class="node" data-node-id="community-d35518ce3682" transform="translate(1070.0, 285.0)"><rect x="0" y="0" rx="18" ry="18" width="240.0" height="88.0" fill="#f8fafc" stroke="#0f172a" stroke-width="1.6" /><rect x="1.5" y="1.5" rx="16" ry="16" width="237.0" height="85.0" fill="none" stroke="#cbd5e1" stroke-width="1" /><text x="120.0" y="35.0" text-anchor="middle" font-size="15" font-weight="700" fill="#0f172a"><tspan x="120.0" dy="0">Electrostatics</tspan></text><text x="120.0" y="58.0" text-anchor="middle" font-size="11.5" fill="#475569"><tspan x="120.0" dy="0">1 concepts | 3 skills | 48 misconceptions</tspan></text><title>Electrostatics
Level: chapter
Members: 52
Concepts: 1
Skills: 3
Misconceptions: 48
Theme: Electrostatics. Concepts: Electrostatics, apply electromagnetic induction, resolve electric field vectors, solve electrostatics pr...</title></g><g class="node" data-node-id="community-d604cdff9635" transform="translate(1360.0, 285.0)"><rect x="0" y="0" rx="18" ry="18" width="240.0" height="88.0" fill="#f8fafc" stroke="#0f172a" stroke-width="1.6" /><rect x="1.5" y="1.5" rx="16" ry="16" width="237.0" height="85.0" fill="none" stroke="#cbd5e1" stroke-width="1" /><text x="120.0" y="35.0" text-anchor="middle" font-size="15" font-weight="700" fill="#0f172a"><tspan x="120.0" dy="0">Gravitation</tspan></text><text x="120.0" y="58.0" text-anchor="middle" font-size="11.5" fill="#475569"><tspan x="120.0" dy="0">1 concepts | 2 skills | 14 misconceptions</tspan></text><title>Gravitation
Level: chapter
Members: 17
Concepts: 1
Skills: 2
Misconceptions: 14
Theme: Gravitation. Concepts: Gravitation, apply energy conservation, use gravitation scaling relations. Prerequisites: Gravitation, appl...</title></g><g class="node" data-node-id="community-740e12e87cfb" transform="translate(1650.0, 285.0)"><rect x="0" y="0" rx="18" ry="18" width="240.0" height="88.0" fill="#f8fafc" stroke="#0f172a" stroke-width="1.6" /><rect x="1.5" y="1.5" rx="16" ry="16" width="237.0" height="85.0" fill="none" stroke="#cbd5e1" stroke-width="1" /><text x="120.0" y="35.0" text-anchor="middle" font-size="15" font-weight="700" fill="#0f172a"><tspan x="120.0" dy="0">Kinematics</tspan></text><text x="120.0" y="58.0" text-anchor="middle" font-size="11.5" fill="#475569"><tspan x="120.0" dy="0">1 concepts | 1 skills | 7 misconceptions</tspan></text><title>Kinematics
Level: chapter
Members: 9
Concepts: 1
Skills: 1
Misconceptions: 7
Theme: Kinematics. Concepts: Kinematics, solve kinematics problems. Prerequisites: Kinematics, solve kinematics problems. Misconceptions:...</title></g><g class="node" data-node-id="community-21b2defdafeb" transform="translate(1940.0, 285.0)"><rect x="0" y="0" rx="18" ry="18" width="240.0" height="88.0" fill="#f8fafc" stroke="#0f172a" stroke-width="1.6" /><rect x="1.5" y="1.5" rx="16" ry="16" width="237.0" height="85.0" fill="none" stroke="#cbd5e1" stroke-width="1" /><text x="120.0" y="35.0" text-anchor="middle" font-size="15" font-weight="700" fill="#0f172a"><tspan x="120.0" dy="0">Kinetic Theory</tspan></text><text x="120.0" y="58.0" text-anchor="middle" font-size="11.5" fill="#475569"><tspan x="120.0" dy="0">1 concepts | 1 skills | 1 misconceptions</tspan></text><title>Kinetic Theory
Level: chapter
Members: 3
Concepts: 1
Skills: 1
Misconceptions: 1
Theme: Kinetic Theory. Concepts: Kinetic Theory, solve kinetic theory problems. Prerequisites: Kinetic Theory, solve kinetic theory probl...</title></g><g class="node" data-node-id="community-3def959223cc" transform="translate(2230.0, 285.0)"><rect x="0" y="0" rx="18" ry="18" width="240.0" height="88.0" fill="#f8fafc" stroke="#0f172a" stroke-width="1.6" /><rect x="1.5" y="1.5" rx="16" ry="16" width="237.0" height="85.0" fill="none" stroke="#cbd5e1" stroke-width="1" /><text x="120.0" y="35.0" text-anchor="middle" font-size="15" font-weight="700" fill="#0f172a"><tspan x="120.0" dy="0">Laws of Motion</tspan></text><text x="120.0" y="58.0" text-anchor="middle" font-size="11.5" fill="#475569"><tspan x="120.0" dy="0">1 concepts | 3 skills | 31 misconceptions</tspan></text><title>Laws of Motion
Level: chapter
Members: 35
Concepts: 1
Skills: 3
Misconceptions: 31
Theme: Laws of Motion. Concepts: Laws of Motion, apply energy conservation, apply fluid pressure relations, solve laws of motion problems...</title></g><g class="node" data-node-id="community-213f676ad09f" transform="translate(2520.0, 285.0)"><rect x="0" y="0" rx="18" ry="18" width="240.0" height="88.0" fill="#f8fafc" stroke="#0f172a" stroke-width="1.6" /><rect x="1.5" y="1.5" rx="16" ry="16" width="237.0" height="85.0" fill="none" stroke="#cbd5e1" stroke-width="1" /><text x="120.0" y="35.0" text-anchor="middle" font-size="15" font-weight="700" fill="#0f172a"><tspan x="120.0" dy="0">Magnetism and Matter</tspan></text><text x="120.0" y="58.0" text-anchor="middle" font-size="11.5" fill="#475569"><tspan x="120.0" dy="0">1 concepts | 1 skills | 1 misconceptions</tspan></text><title>Magnetism and Matter
Level: chapter
Members: 3
Concepts: 1
Skills: 1
Misconceptions: 1
Theme: Magnetism and Matter. Concepts: Magnetism and Matter, solve magnetism and matter problems. Prerequisites: Magnetism and Matter, so...</title></g><g class="node" data-node-id="community-99139d82367b" transform="translate(2810.0, 285.0)"><rect x="0" y="0" rx="18" ry="18" width="240.0" height="88.0" fill="#f8fafc" stroke="#0f172a" stroke-width="1.6" /><rect x="1.5" y="1.5" rx="16" ry="16" width="237.0" height="85.0" fill="none" stroke="#cbd5e1" stroke-width="1" /><text x="120.0" y="35.0" text-anchor="middle" font-size="15" font-weight="700" fill="#0f172a"><tspan x="120.0" dy="0">Moving Charges and Magnetism</tspan></text><text x="120.0" y="58.0" text-anchor="middle" font-size="11.5" fill="#475569"><tspan x="120.0" dy="0">1 concepts | 1 skills | 8 misconceptions</tspan></text><title>Moving Charges and Magnetism
Level: chapter
Members: 10
Concepts: 1
Skills: 1
Misconceptions: 8
Theme: Moving Charges and Magnetism. Concepts: Moving Charges and Magnetism, resolve electric field vectors. Prerequisites: Moving Charge...</title></g><g class="node" data-node-id="community-0448652a1851" transform="translate(3100.0, 285.0)"><rect x="0" y="0" rx="18" ry="18" width="240.0" height="88.0" fill="#f8fafc" stroke="#0f172a" stroke-width="1.6" /><rect x="1.5" y="1.5" rx="16" ry="16" width="237.0" height="85.0" fill="none" stroke="#cbd5e1" stroke-width="1" /><text x="120.0" y="35.0" text-anchor="middle" font-size="15" font-weight="700" fill="#0f172a"><tspan x="120.0" dy="0">Oscillations</tspan></text><text x="120.0" y="58.0" text-anchor="middle" font-size="11.5" fill="#475569"><tspan x="120.0" dy="0">1 concepts | 3 skills | 27 misconceptions</tspan></text><title>Oscillations
Level: chapter
Members: 31
Concepts: 1
Skills: 3
Misconceptions: 27
Theme: Oscillations. Concepts: Oscillations, apply energy conservation, apply thermodynamics relations, solve oscillations problems. Prer...</title></g><g class="node" data-node-id="community-69d97bbad3f5" transform="translate(3390.0, 285.0)"><rect x="0" y="0" rx="18" ry="18" width="240.0" height="88.0" fill="#f8fafc" stroke="#0f172a" stroke-width="1.6" /><rect x="1.5" y="1.5" rx="16" ry="16" width="237.0" height="85.0" fill="none" stroke="#cbd5e1" stroke-width="1" /><text x="120.0" y="35.0" text-anchor="middle" font-size="15" font-weight="700" fill="#0f172a"><tspan x="120.0" dy="0">Properties of Matter</tspan></text><text x="120.0" y="58.0" text-anchor="middle" font-size="11.5" fill="#475569"><tspan x="120.0" dy="0">1 concepts | 2 skills | 24 misconceptions</tspan></text><title>Properties of Matter
Level: chapter
Members: 27
Concepts: 1
Skills: 2
Misconceptions: 24
Theme: Properties of Matter. Concepts: Properties of Matter, apply fluid pressure relations, solve properties of matter problems. Prerequ...</title></g><g class="node" data-node-id="community-110942ef6cb0" transform="translate(3680.0, 285.0)"><rect x="0" y="0" rx="18" ry="18" width="240.0" height="88.0" fill="#f8fafc" stroke="#0f172a" stroke-width="1.6" /><rect x="1.5" y="1.5" rx="16" ry="16" width="237.0" height="85.0" fill="none" stroke="#cbd5e1" stroke-width="1" /><text x="120.0" y="35.0" text-anchor="middle" font-size="15" font-weight="700" fill="#0f172a"><tspan x="120.0" dy="0">Ray Optics</tspan></text><text x="120.0" y="58.0" text-anchor="middle" font-size="11.5" fill="#475569"><tspan x="120.0" dy="0">1 concepts | 2 skills | 19 misconceptions</tspan></text><title>Ray Optics
Level: chapter
Members: 22
Concepts: 1
Skills: 2
Misconceptions: 19
Theme: Ray Optics. Concepts: Ray Optics, apply Snell&#x27;s law, solve ray optics problems. Prerequisites: Ray Optics, apply Snell&#x27;s law, solv...</title></g><g class="node" data-node-id="community-74f347b5866a" transform="translate(3970.0, 285.0)"><rect x="0" y="0" rx="18" ry="18" width="240.0" height="88.0" fill="#f8fafc" stroke="#0f172a" stroke-width="1.6" /><rect x="1.5" y="1.5" rx="16" ry="16" width="237.0" height="85.0" fill="none" stroke="#cbd5e1" stroke-width="1" /><text x="120.0" y="35.0" text-anchor="middle" font-size="15" font-weight="700" fill="#0f172a"><tspan x="120.0" dy="0">Rotational Mechanics</tspan></text><text x="120.0" y="58.0" text-anchor="middle" font-size="11.5" fill="#475569"><tspan x="120.0" dy="0">1 concepts | 1 skills | 13 misconceptions</tspan></text><title>Rotational Mechanics
Level: chapter
Members: 15
Concepts: 1
Skills: 1
Misconceptions: 13
Theme: Rotational Mechanics. Concepts: Rotational Mechanics, solve rotational mechanics problems. Prerequisites: Rotational Mechanics, so...</title></g><g class="node" data-node-id="community-d4e2c92da958" transform="translate(4260.0, 285.0)"><rect x="0" y="0" rx="18" ry="18" width="240.0" height="88.0" fill="#f8fafc" stroke="#0f172a" stroke-width="1.6" /><rect x="1.5" y="1.5" rx="16" ry="16" width="237.0" height="85.0" fill="none" stroke="#cbd5e1" stroke-width="1" /><text x="120.0" y="35.0" text-anchor="middle" font-size="15" font-weight="700" fill="#0f172a"><tspan x="120.0" dy="0">Semiconductor Electronics</tspan></text><text x="120.0" y="58.0" text-anchor="middle" font-size="11.5" fill="#475569"><tspan x="120.0" dy="0">1 concepts | 1 skills | 5 misconceptions</tspan></text><title>Semiconductor Electronics
Level: chapter
Members: 7
Concepts: 1
Skills: 1
Misconceptions: 5
Theme: Semiconductor Electronics. Concepts: Semiconductor Electronics, solve semiconductor electronics problems. Prerequisites: Semicondu...</title></g><g class="node" data-node-id="community-e8bc6594cc2c" transform="translate(4550.0, 285.0)"><rect x="0" y="0" rx="18" ry="18" width="240.0" height="88.0" fill="#f8fafc" stroke="#0f172a" stroke-width="1.6" /><rect x="1.5" y="1.5" rx="16" ry="16" width="237.0" height="85.0" fill="none" stroke="#cbd5e1" stroke-width="1" /><text x="120.0" y="35.0" text-anchor="middle" font-size="15" font-weight="700" fill="#0f172a"><tspan x="120.0" dy="0">Thermal Properties of Matter</tspan></text><text x="120.0" y="58.0" text-anchor="middle" font-size="11.5" fill="#475569"><tspan x="120.0" dy="0">1 concepts | 2 skills | 15 misconceptions</tspan></text><title>Thermal Properties of Matter
Level: chapter
Members: 18
Concepts: 1
Skills: 2
Misconceptions: 15
Theme: Thermal Properties of Matter. Concepts: Thermal Properties of Matter, apply thermodynamics relations, use bridge balance relation....</title></g><g class="node" data-node-id="community-373b02378843" transform="translate(4840.0, 285.0)"><rect x="0" y="0" rx="18" ry="18" width="240.0" height="88.0" fill="#f8fafc" stroke="#0f172a" stroke-width="1.6" /><rect x="1.5" y="1.5" rx="16" ry="16" width="237.0" height="85.0" fill="none" stroke="#cbd5e1" stroke-width="1" /><text x="120.0" y="35.0" text-anchor="middle" font-size="15" font-weight="700" fill="#0f172a"><tspan x="120.0" dy="0">Units and Measurements</tspan></text><text x="120.0" y="58.0" text-anchor="middle" font-size="11.5" fill="#475569"><tspan x="120.0" dy="0">1 concepts | 2 skills | 13 misconceptions</tspan></text><title>Units and Measurements
Level: chapter
Members: 16
Concepts: 1
Skills: 2
Misconceptions: 13
Theme: Units and Measurements. Concepts: Units and Measurements, apply electromagnetic induction, solve units and measurements problems....</title></g><g class="node" data-node-id="community-e2ce875009fb" transform="translate(5130.0, 285.0)"><rect x="0" y="0" rx="18" ry="18" width="240.0" height="88.0" fill="#f8fafc" stroke="#0f172a" stroke-width="1.6" /><rect x="1.5" y="1.5" rx="16" ry="16" width="237.0" height="85.0" fill="none" stroke="#cbd5e1" stroke-width="1" /><text x="120.0" y="35.0" text-anchor="middle" font-size="15" font-weight="700" fill="#0f172a"><tspan x="120.0" dy="0">Wave Optics</tspan></text><text x="120.0" y="58.0" text-anchor="middle" font-size="11.5" fill="#475569"><tspan x="120.0" dy="0">1 concepts | 1 skills | 3 misconceptions</tspan></text><title>Wave Optics
Level: chapter
Members: 5
Concepts: 1
Skills: 1
Misconceptions: 3
Theme: Wave Optics. Concepts: Wave Optics, solve wave optics problems. Prerequisites: Wave Optics, solve wave optics problems. Misconcept...</title></g><g class="node" data-node-id="community-031b2a0fb811" transform="translate(5420.0, 285.0)"><rect x="0" y="0" rx="18" ry="18" width="240.0" height="88.0" fill="#f8fafc" stroke="#0f172a" stroke-width="1.6" /><rect x="1.5" y="1.5" rx="16" ry="16" width="237.0" height="85.0" fill="none" stroke="#cbd5e1" stroke-width="1" /><text x="120.0" y="35.0" text-anchor="middle" font-size="15" font-weight="700" fill="#0f172a"><tspan x="120.0" dy="0">Waves</tspan></text><text x="120.0" y="58.0" text-anchor="middle" font-size="11.5" fill="#475569"><tspan x="120.0" dy="0">1 concepts | 3 skills | 44 misconceptions</tspan></text><title>Waves
Level: chapter
Members: 48
Concepts: 1
Skills: 3
Misconceptions: 44
Theme: Waves. Concepts: Waves, apply electromagnetic induction, resolve electric field vectors, solve waves problems. Prerequisites: Wave...</title></g><g class="node" data-node-id="community-86a69ba4573f" transform="translate(5710.0, 285.0)"><rect x="0" y="0" rx="18" ry="18" width="240.0" height="88.0" fill="#f8fafc" stroke="#0f172a" stroke-width="1.6" /><rect x="1.5" y="1.5" rx="16" ry="16" width="237.0" height="85.0" fill="none" stroke="#cbd5e1" stroke-width="1" /><text x="120.0" y="35.0" text-anchor="middle" font-size="15" font-weight="700" fill="#0f172a"><tspan x="120.0" dy="0">Work, Energy and Power</tspan></text><text x="120.0" y="58.0" text-anchor="middle" font-size="11.5" fill="#475569"><tspan x="120.0" dy="0">1 concepts | 5 skills | 55 misconceptions</tspan></text><title>Work, Energy and Power
Level: chapter
Members: 61
Concepts: 1
Skills: 5
Misconceptions: 55
Theme: Work, Energy and Power. Concepts: Work, Energy and Power, apply energy conservation, apply thermodynamics relations, reduce circui...</title></g></svg>